<svg width="137" height="27" viewBox="0 0 137 27" fill="none" xmlns="http://www.w3.org/2000/svg">
<path d="M74.1381 15.3872L58.0887 0.365285V25.6445H62.8619V11.62L78.9113 26.6505V1.38844H74.1381V15.3872ZM36.9064 0.00140157C29.5045 -0.105623 23.4598 5.93056 23.5711 13.3366C23.5711 20.5158 29.7229 26.6719 36.9064 26.6719C44.3082 26.7618 50.3272 20.7427 50.2159 13.3366C50.323 5.93484 44.3082 -0.088499 36.9064 0.00140157ZM36.9064 21.8772C32.1587 21.9243 28.323 18.0628 28.3658 13.3366C28.3658 8.54195 32.1117 4.7961 36.9064 4.7961C41.6796 4.7961 45.4469 8.54195 45.4469 13.3366C45.4469 18.1313 41.6796 21.8772 36.9064 21.8772ZM15.3859 13.3366C14.0031 12.3092 12.2864 11.62 9.90191 10.9521C5.12862 9.56939 5.12862 8.21232 5.12862 7.5402C5.12862 6.15745 6.82389 4.80038 9.23408 4.80038C11.289 4.80038 12.9799 5.82781 13.6735 6.15745L14.0031 6.51705L17.7704 3.77294L17.415 3.44331C17.415 3.44331 14.3627 0.0056802 9.2298 0.0056802C6.8196 0.0056802 4.4351 0.694918 2.73983 2.05627C1.02744 3.44331 0 5.46821 0 7.5402C0 9.59507 1.02744 11.62 2.73983 13.0027C4.10546 14.0302 5.80073 14.698 8.20664 15.3872C12.9714 16.7529 12.9714 18.1313 12.9714 18.7992C12.9714 20.1562 11.2804 21.5433 8.87448 21.5433C6.8196 21.5433 5.12434 20.5159 4.4351 20.1562L4.10546 19.8266L0.338198 22.5664L0.693519 22.9046C0.693519 22.9046 3.74586 26.3123 8.87876 26.3123C11.289 26.3123 13.6735 25.6231 15.3644 24.2617C17.0811 22.9046 18.1086 20.8498 18.1086 18.7992C18.1086 16.7486 17.0811 15.0533 15.3644 13.3366H15.3859ZM100.094 0.00140157C92.6918 -0.088499 86.6728 5.93056 86.7841 13.3366C86.7841 20.6956 92.7389 26.6462 100.094 26.6719C107.495 26.7618 113.54 20.7427 113.429 13.3366C113.408 5.97765 107.453 0.0270874 100.094 0.00140157ZM100.094 21.8772C95.3674 21.9243 91.5103 18.0628 91.5531 13.3366C91.5531 8.54195 95.3204 4.7961 100.094 4.7961C104.888 4.7961 108.634 8.54195 108.634 13.3366C108.634 18.1313 104.529 21.8772 100.094 21.8772ZM121.614 12.9984C122.997 14.0259 124.714 14.6937 127.098 15.383C131.871 16.7486 131.871 18.1271 131.871 18.7949C131.871 20.152 130.176 21.539 127.766 21.539C125.711 21.539 124.02 20.5116 123.327 20.152H122.997L119.23 22.8961L119.585 23.2257C119.585 23.2257 122.637 26.6633 127.77 26.6633C130.18 26.6633 132.565 25.9741 134.26 24.6127C135.973 23.2257 137 21.2008 137 19.1288C137 17.0739 135.973 15.049 134.26 13.6663C132.895 12.6388 131.199 11.971 128.793 11.2818C124.029 9.91615 124.029 8.53767 124.029 7.86984C124.029 6.51277 125.72 5.12573 128.126 5.12573C130.18 5.12573 131.876 6.15317 132.565 6.51277L132.895 6.8424L136.662 4.10258L136.306 3.76438C136.306 3.76438 133.254 0.356724 128.121 0.356724C125.711 0.356724 123.327 1.04596 121.636 2.40731C119.919 3.76438 118.891 5.81925 118.891 7.86984C118.562 9.92043 119.559 11.6157 121.636 12.9942L121.614 12.9984Z" fill="black"/>
</svg>
