<svg width="180" height="44" viewBox="0 0 180 44" fill="none" xmlns="http://www.w3.org/2000/svg">
<path d="M64.8 29.2L64 22.4C63.8 20.6 63.6 18.7 63.4 16.9H63.3C63.1 18.7 62.9 20.6 62.6 22.4L61.5 29.2H64.8ZM66.3 39.1L65.7 35.4H60.4L59.7 39.1H51.6L58.6 10H68.2L74.4 39.1H66.3Z" fill="black"/>
<path d="M81.9 29.3C83 30.9 84.9 32.5 86.9 32.5C88 32.5 89.2 31.8 89.2 30.6C89.2 29.9 89 29.4 88.6 29C88.3 28.6 87.8 28.2 87.3 27.9C85.8 26.7 84.4 25.6 83.4 24.2C82.4 22.8 81.8 21.2 81.8 19.1C81.8 15.7 84 9.5 90.7 9.5C92.6 9.5 94.6 10.1 96.3 11V19.8C95.4 18.3 93.5 16.7 91.7 16.7C90.8 16.7 89.7 17.4 89.7 18.5C89.7 19.1 90 19.7 90.5 20.1C90.9 20.6 91.5 20.9 91.9 21.3C93.6 22.5 94.9 23.5 95.8 24.9C96.7 26.2 97.2 27.8 97.2 30C97.2 35.4 93.4 39.7 87.9 39.7C85.9 39.7 83.8 39.3 82 38.5V29.3H81.9Z" fill="black"/>
<path d="M119.2 39.1L114.3 25.7H114.2V39.1H106.4V10H114.2V22.4H114.3L118.6 10H126.9L120.6 24L127.6 39.1H119.2Z" fill="black"/>
<path d="M155.9 10V29C155.9 32.5 155.1 39.6 146 39.6C136.9 39.6 136.1 32.5 136.1 29V10H144V28.3C144 29.1 144 30.1 144.2 30.8C144.4 31.6 144.9 32.2 146 32.2C147.1 32.2 147.6 31.6 147.8 30.8C148 30 148 29 148 28.3V10H155.9Z" fill="black"/>
<path d="M166.2 39.1V10H174.1V32.2H180V39.1H166.2Z" fill="black"/>
<path d="M14.6 6.3C14.9 8.1 16.3 9.6 18.1 9.9C19.1 10.1 19.9 9.9 20.8 9.4C21.7 8.9 22.4 8.2 22.7 7.3C23.2 6.2 22.9 4.9 22.7 3.9C22.9 3.4 23.1 3 23.4 2.4C21.6 1.6 19.8 0.7 18 0C17.6 0.7 17.3 1.4 16.9 2.1C15.8 1.7 15.6 1.6 14.7 1.2C14.6 1.4 14.5 1.5 14.4 1.8C14.9 2 15.6 2.4 16.2 2.7C15.7 3.2 15.2 3.6 15 4.3C14.8 4.8 14.7 5.7 14.7 5.9C13.6 5.6 12.5 5.2 11.5 4.9C11.5 5.9 11.5 6 11.5 7C12.6 6.8 13.4 6.5 14.6 6.3Z" fill="black"/>
<path d="M25 19.1C24.8 19.1 24.7 19.1 24.5 19.1C23.2 19.1 22.1 19.8 21.5 20.8L8.7 20L8.8 14.6L24.9 15.6C25.6 16.7 25.5 18.1 25 19.1ZM7.8 19.8L3.9 17.8L4 16.1L7.9 14.8L7.8 19.8ZM31.4 21.4C31.9 20.4 32.1 19.3 32.1 18.1C32.1 17.4 32 16.7 31.8 16L42 16.7L41.6 22L31.4 21.4ZM30.9 22.2L42.4 22.9L42.8 15.9L31.6 15.2H31.5C30.3 12.2 27.4 10.1 24 10.1C21 10.1 18.4 11.8 17 14.2L16.9 14.3L8.1 13.8L0 16.8L7.9 20.8L16.7 21.3C17.2 22.5 18 23.5 18.9 24.3V24.4C15.4 27 12.3 30.4 10.3 37.1C9.2 36.9 6.9 36.4 6.9 36.4C6.9 36.4 6.3 36.4 6.2 36.9C5.7 39.3 5.3 41.3 5.3 41.3L16.3 43.6C16.9 40.8 18.8 27.5 25.1 26.1C28.3 27.9 32.6 35 32.9 37C32 37.5 29.7 38.4 29.5 38.5C29.2 38.7 28.7 38.8 29.1 39.8C29.4 40.3 31 43.8 31 43.8L41.4 39.2C40.5 32.7 33.4 26.1 29.2 24.3C29.9 23.7 30.5 23 30.9 22.2Z" fill="black"/>
</svg>
