<svg width="97" height="65" viewBox="0 0 97 65" fill="none" xmlns="http://www.w3.org/2000/svg">
<path fill-rule="evenodd" clip-rule="evenodd" d="M31.4526 42.0047H27.5117H12.2012L10.0413 38.3998L24.1836 29.9056L27.5117 35.4367L31.4526 42.0047ZM83.4259 42.0047H64.1745L52.7318 22.929L44.0624 8.49417L52.7318 3.28402L58.1908 0L71.4424 22.0388L83.4259 42.0047ZM52.7753 47.2009C54.4977 47.2009 56.0889 47.7121 57.4468 48.5873V42.0053H61.4307V64.0586H57.4468V63.1538C56.0889 64.0295 54.4977 64.5402 52.7753 64.5402H52.7318C47.9743 64.5107 44.1065 60.6289 44.1065 55.8703C44.1065 51.1123 47.9743 47.2299 52.7318 47.2009H52.7753ZM52.7753 60.6429C55.082 60.6429 57.0237 58.9651 57.4468 56.7756V54.9656C57.0232 52.7766 55.082 51.1123 52.7753 51.1123H52.7318C50.1192 51.1273 48.0033 53.2582 48.0033 55.8703C48.0033 58.4829 50.1192 60.6138 52.7318 60.6429H52.7753ZM71.487 47.2009C73.1455 47.1991 74.7685 47.6809 76.1574 48.5873V47.6385H80.1424V64.0586H76.1574V63.1538C74.8146 64.0295 73.2094 64.5402 71.487 64.5402H71.4424C66.6849 64.5107 62.8176 60.6289 62.8176 55.8703C62.8176 51.1123 66.6849 47.2299 71.4424 47.2009H71.487ZM71.487 60.6429C73.7926 60.6429 75.7343 58.9651 76.1574 56.7756V54.9656C75.7338 52.7766 73.7926 51.1123 71.487 51.1123H71.4424C68.8309 51.1273 66.7144 53.2582 66.7144 55.8703C66.7144 58.4829 68.8309 60.6138 71.4424 60.6429H71.487ZM93.8364 54.5964C94.0256 54.6667 94.1908 54.7281 94.3138 54.7903C96.1082 55.6365 96.9995 56.9212 97 58.6452C97 60.7466 96.1243 62.2792 94.3874 63.242C94.1686 63.3586 93.9638 63.4613 93.73 63.5634C92.6059 64.0446 91.2926 64.2929 89.8191 64.2929C87.6146 64.2929 85.8342 63.8984 84.4763 63.1248C82.769 62.133 81.9223 60.6299 81.9223 58.6156H86.3589C86.3589 59.3747 86.6362 59.973 87.177 60.3816C87.7167 60.8046 88.636 61.0234 89.9353 61.0234C90.9126 61.0234 91.6426 60.8186 92.1248 60.4101C92.5043 60.0891 92.6785 59.7392 92.6785 59.3301C92.6785 58.6441 91.8039 58.1039 90.067 57.7244C87.4684 57.1696 85.8342 56.717 85.1627 56.396C83.3818 55.5639 82.5066 54.2801 82.5066 52.4987C82.5066 51.0682 82.9592 49.857 83.893 48.8647C85.0601 47.6245 86.811 47.0111 89.1322 47.0111C91.0438 47.0111 92.5759 47.2885 93.7295 47.8288C93.8263 47.8684 93.9192 47.9172 94.0068 47.9745C95.6706 48.8792 96.5173 50.3677 96.5173 52.4401H92.2845C92.1528 51.7391 91.949 51.2434 91.6716 50.9661C91.219 50.5139 90.4455 50.2801 89.38 50.2801C88.3285 50.2801 87.5996 50.4554 87.1905 50.8058C86.8841 51.0682 86.7239 51.4332 86.7239 51.8858C86.7239 52.5282 87.6141 53.0384 89.38 53.433C91.3943 53.8705 92.8392 54.2501 93.7295 54.5565C93.7658 54.5701 93.8015 54.5834 93.8364 54.5964ZM8.65486 47.2009C10.3176 47.2012 11.9447 47.6827 13.3398 48.5873V47.6385H17.3242V64.0586H13.3398V63.1538C11.9824 64.0295 10.3772 64.5402 8.65486 64.5402H8.61079C3.86781 64.5107 0 60.6289 0 55.8703C0 51.1123 3.86781 47.2299 8.61079 47.2009H8.65486ZM8.65486 60.6429C10.975 60.6429 12.9167 58.9651 13.3398 56.7756V54.9656C12.9167 52.7766 10.9755 51.1123 8.65486 51.1123H8.61079C6.01325 51.1273 3.89684 53.2582 3.89684 55.8703C3.89684 58.4829 6.01325 60.6138 8.61079 60.6429H8.65486ZM42.5448 45.9021H38.2099V42.0924H42.5448V45.9021ZM42.5448 64.0581H38.2099V47.2009H42.5448V64.0581ZM27.5553 47.2009C29.2181 47.2011 30.8454 47.6826 32.2407 48.5873V42.0053H36.2252V64.0586H32.2407V63.1538C30.8455 64.0587 29.2182 64.5402 27.5553 64.5402H27.5117C22.7532 64.5107 18.8859 60.6289 18.8859 55.8703C18.8859 51.1123 22.7537 47.2299 27.5117 47.2009H27.5553ZM27.5553 60.6429C29.8759 60.6429 31.8176 58.9651 32.2407 56.7756V54.9656C31.8171 52.7766 29.8759 51.1123 27.5553 51.1123H27.5117C24.8991 51.1273 22.7827 53.2582 22.7827 55.8703C22.7827 58.4829 24.8991 60.6138 27.5117 60.6429H27.5553ZM52.7318 34.153L57.4312 42.0047H38.1948L27.5117 24.2278L27.0446 23.4542L27.5117 23.1774L41.1875 14.9455L52.7318 34.153Z" fill="black"/>
</svg>
