<svg width="50" height="50" viewBox="0 0 50 50" fill="none" xmlns="http://www.w3.org/2000/svg">
<circle cx="25" cy="25" r="24.5" stroke="#3AAE2A"/>
<path d="M13.8284 38.905L10.9999 36.0765L36.0765 11L38.9049 13.8284L13.8284 38.905Z" fill="#45B235"/>
<path d="M30 34.5C30 32.0147 32.0147 30 34.5 30V30C36.9853 30 39 32.0147 39 34.5V34.5C39 36.9853 36.9853 39 34.5 39V39C32.0147 39 30 36.9853 30 34.5V34.5Z" fill="#45B235"/>
<path d="M11 15.5C11 13.0147 13.0147 11 15.5 11V11C17.9853 11 20 13.0147 20 15.5V15.5C20 17.9853 17.9853 20 15.5 20V20C13.0147 20 11 17.9853 11 15.5V15.5Z" fill="#45B235"/>
</svg>
